<?xml version="1.0" encoding="UTF-8"?>
<svg version="1.1" xmlns="http://www.w3.org/2000/svg" width="350" height="350">
<path d="M0 0 C115.5 0 231 0 350 0 C350 115.5 350 231 350 350 C234.5 350 119 350 0 350 C0 234.5 0 119 0 0 Z " fill="#E6EEF4" transform="translate(0,0)"/>
<path d="M0 0 C7.43148767 6.08030809 13.02337678 14.2094543 15.0625 23.6875 C16.2135554 36.95083355 15.24283037 47.78039284 7.0625 58.6875 C6.381875 59.656875 5.70125 60.62625 5 61.625 C-2.764618 70.5932518 -13.38815041 73.74929977 -24.78515625 75 C-36.92181281 75.55881009 -46.98924448 70.60438191 -55.9375 62.6875 C-64.27460304 54.05011994 -68.37064225 42.65121892 -68.2109375 30.78515625 C-67.15443799 18.81652607 -61.79540456 9.0199255 -53.125 0.875 C-37.49839202 -11.96005859 -16.21723861 -11.58374187 0 0 Z " fill="#9CB8D3" transform="translate(200.9375,100.3125)"/>
<path d="M0 0 C1.83740377 -0.00083071 3.67480745 -0.00329767 5.51220703 -0.00730896 C9.34495674 -0.01015212 13.1771173 0.00438809 17.00976562 0.03198242 C21.89166078 0.0660625 26.77250391 0.06003268 31.65444946 0.04131985 C35.44320246 0.03068785 39.23171597 0.0397436 43.02044678 0.05470467 C44.81914557 0.05984157 46.61786985 0.05946008 48.41656494 0.05315971 C64.25295135 0.01849868 76.17547354 2.02560525 87.84375 13.578125 C97.69140314 24.197734 99.23376037 35.84701173 99.3125 49.94140625 C99.34537109 50.99908203 99.37824219 52.05675781 99.41210938 53.14648438 C99.46529808 60.81049298 99.46529808 60.81049298 96.5703125 64.82421875 C93.03568066 67.19088528 91.04810939 67.3117787 86.875 66.62890625 C84.51002561 64.7618212 83.21469285 63.30829194 81.875 60.62890625 C81.79237796 58.78667293 81.76675049 56.9417393 81.76953125 55.09765625 C81.74729492 53.41542969 81.74729492 53.41542969 81.72460938 51.69921875 C81.70019586 49.35038151 81.69446858 47.00126301 81.70898438 44.65234375 C81.53286376 35.28059203 79.07073773 28.93505814 72.5 22.19140625 C66.53688688 18.64193415 61.11174822 17.25374193 54.13305664 17.22485352 C53.4050737 17.21799026 52.67709076 17.21112701 51.92704773 17.20405579 C49.54621275 17.18591478 47.16604478 17.18960676 44.78515625 17.1953125 C43.11420989 17.19074462 41.44326541 17.18543725 39.77232361 17.1794281 C36.27985983 17.17052196 32.78762502 17.17289154 29.29516602 17.18286133 C24.83887629 17.19434844 20.38337931 17.17413112 15.92719364 17.14494419 C12.47915195 17.12652167 9.03129813 17.12688663 5.58321953 17.13258171 C3.94111456 17.13273418 2.29899625 17.12675158 0.65693855 17.11429024 C-11.77300764 16.96642884 -11.77300764 16.96642884 -23.125 21.62890625 C-23.69101425 21.98694839 -24.2570285 22.34499054 -24.8401947 22.71388245 C-29.05945195 25.79127481 -31.52018621 29.74257911 -33.125 34.62890625 C-33.74005224 40.15580265 -33.58433839 45.69650017 -33.52539062 51.25 C-33.61892718 60.79072836 -33.61892718 60.79072836 -36.4375 64.3984375 C-39.125 66.62890625 -39.125 66.62890625 -42.6875 67.19140625 C-46.18401583 66.61924911 -47.69463538 66.15274643 -50.125 63.62890625 C-53.77357311 52.68318691 -52.55832817 35.95367424 -48.4453125 25.2109375 C-46.19089693 20.80215439 -43.54278024 17.20265662 -40.125 13.62890625 C-39.4546875 12.91863281 -38.784375 12.20835937 -38.09375 11.4765625 C-26.87235024 0.56009208 -14.7845024 -0.12200497 0 0 Z " fill="#9BB8D3" transform="translate(151.125,191.37109375)"/>
<path d="M0 0 C5.24154046 3.74711249 8.75188371 8.90018237 10.78125 14.98828125 C11.55396942 22.60146764 10.86441564 29.40077402 6.78125 35.98828125 C1.56672233 41.89544067 -3.38940347 45.47299117 -11.3671875 46.32421875 C-19.55176343 46.42330563 -24.97986863 45.78186599 -31.15234375 40.2578125 C-36.83500498 34.33886598 -39.22183906 28.1924759 -39.71875 20.05078125 C-39.45472409 13.24947382 -36.91718346 7.67183365 -32.09375 2.875 C-21.77802762 -5.54137484 -11.69826652 -6.31646092 0 0 Z " fill="#E6EEF4" transform="translate(189.21875,112.01171875)"/>
</svg>
